<svg width="60" height="60" viewBox="0 0 60 60" fill="none" xmlns="http://www.w3.org/2000/svg">
<path d="M53.4783 30C56.3609 30 58.6956 32.3348 58.6956 35.2174C58.6956 38.1 56.3609 40.4348 53.4783 40.4348C50.5956 40.4348 48.2609 38.1 48.2609 35.2174C48.2609 34.6435 48.3522 34.0957 48.5348 33.5739C49.213 31.5 51.1696 30 53.4783 30Z" fill="#CCE4FF"/>
<path d="M11.1783 14.6217C11.5435 15.3261 11.7391 16.1217 11.7391 16.9565C11.7391 19.8391 9.40435 22.1739 6.52174 22.1739C3.63913 22.1739 1.30435 19.8391 1.30435 16.9565C1.30435 14.0739 3.63913 11.7391 6.52174 11.7391C8.56957 11.7391 10.3304 12.913 11.1783 14.6217Z" fill="#CCE4FF"/>
<path d="M60 35.2174C60 31.6213 57.0743 28.6957 53.4783 28.6957C51.1057 28.6957 48.9848 29.9752 47.8448 31.9683L36.4591 28.1648C36.4891 27.9091 36.5217 27.6535 36.5217 27.3913C36.5217 23.9674 33.8596 21.1813 30.5022 20.9204L29.4809 12.6926C32.0765 11.8096 33.913 9.35348 33.913 6.52174C33.913 2.92565 30.9874 0 27.3913 0C23.7952 0 20.8696 2.92565 20.8696 6.52174C20.8696 7.09696 20.9543 7.66565 21.103 8.21348L11.6348 12.9365C10.4191 11.3752 8.56304 10.4348 6.52174 10.4348C2.92565 10.4348 0 13.3604 0 16.9565C0 20.5526 2.92565 23.4783 6.52174 23.4783C10.1178 23.4783 13.0435 20.5526 13.0435 16.9565C13.0435 16.38 12.9587 15.81 12.8113 15.2648L22.2783 10.5417C23.3922 11.9739 25.0487 12.8687 26.8917 13.0083L27.9104 21.2204C25.3135 22.1035 23.4783 24.5596 23.4783 27.3913C23.4783 30.9874 26.4039 33.913 30 33.913C32.3778 33.913 34.5039 32.6283 35.6374 30.6404L47.0204 34.4426C46.9891 34.6996 46.9565 34.9552 46.9565 35.2174C46.9565 38.3661 49.2013 41.0009 52.1739 41.6074V47.0883C49.2013 47.6948 46.9565 50.3283 46.9565 53.4783C46.9565 57.0743 49.8822 60 53.4783 60C57.0743 60 60 57.0743 60 53.4783C60 50.3296 57.7552 47.6948 54.7826 47.0883V41.6074C57.7552 41.0009 60 38.3661 60 35.2174ZM6.52174 20.8696C4.36435 20.8696 2.6087 19.1139 2.6087 16.9565C2.6087 14.7991 4.36435 13.0435 6.52174 13.0435C8.01261 13.0435 9.34957 13.8704 10.02 15.2217C10.2952 15.7526 10.4348 16.3357 10.4348 16.9565C10.4348 19.1139 8.67913 20.8696 6.52174 20.8696ZM23.9035 8.27739C23.9035 8.27609 23.9022 8.27609 23.9022 8.27478C23.8996 8.26826 23.8957 8.26304 23.893 8.25652C23.6178 7.72565 23.4783 7.14261 23.4783 6.52174C23.4783 4.36435 25.2339 2.6087 27.3913 2.6087C29.5487 2.6087 31.3043 4.36435 31.3043 6.52174C31.3043 8.4887 29.8317 10.1583 27.8817 10.4061C27.7239 10.4257 27.5583 10.4348 27.3913 10.4348C25.9004 10.4348 24.5635 9.60783 23.9035 8.27739ZM30 31.3043C27.8426 31.3043 26.087 29.5487 26.087 27.3913C26.087 25.4243 27.5596 23.7548 29.5122 23.507C29.6687 23.4874 29.8343 23.4783 30 23.4783C32.1574 23.4783 33.913 25.2339 33.913 27.3913C33.913 27.8139 33.8452 28.2222 33.7043 28.6291C33.18 30.2296 31.6917 31.3043 30 31.3043ZM49.5652 35.2174C49.5652 34.7948 49.633 34.3865 49.7661 34.0043C49.7687 33.9965 49.7713 33.9887 49.7739 33.9796C50.2983 32.3791 51.7865 31.3043 53.4783 31.3043C55.6357 31.3043 57.3913 33.06 57.3913 35.2174C57.3913 37.3748 55.6357 39.1304 53.4783 39.1304C51.3209 39.1304 49.5652 37.3748 49.5652 35.2174ZM57.3913 53.4783C57.3913 55.6357 55.6357 57.3913 53.4783 57.3913C51.3209 57.3913 49.5652 55.6357 49.5652 53.4783C49.5652 51.3209 51.3209 49.5652 53.4783 49.5652C55.6357 49.5652 57.3913 51.3209 57.3913 53.4783Z" fill="#00568E"/>
</svg>
