<svg width="60" height="60" viewBox="0 0 60 60" fill="none" xmlns="http://www.w3.org/2000/svg">
<path d="M44.7652 44.7652L50.2957 50.2957C55.487 45.1044 58.6957 37.9304 58.6957 30H50.8696C50.8696 35.7652 48.5348 40.9826 44.7652 44.7652Z" fill="#CCE4FF"/>
<path d="M30 9.13044C35.7652 9.13044 40.9826 11.4652 44.7652 15.2348L50.2957 9.70435C45.1044 4.51305 37.9304 1.30435 30 1.30435V9.13044Z" fill="#CCE4FF"/>
<path d="M30 50.8696C24.2348 50.8696 19.0174 48.5348 15.2348 44.7652L9.70435 50.2957C14.8956 55.487 22.0696 58.6957 30 58.6957V50.8696Z" fill="#CCE4FF"/>
<path d="M9.70435 9.70436C4.51305 14.8957 1.30435 22.0696 1.30435 30H9.13044C9.13044 24.2348 11.4652 19.0174 15.2348 15.2348L9.70435 9.70436Z" fill="#CCE4FF"/>
<path d="M30 0C21.9809 0 14.4443 3.12 8.78217 8.78217C3.1187 14.4443 0 21.9809 0 30C0 38.0191 3.1187 45.5557 8.78217 51.2178C14.4443 56.88 21.9809 60 30 60C38.0191 60 45.5557 56.88 51.2178 51.2178C56.88 45.5557 60 38.0191 60 30C60 21.9809 56.88 14.4443 51.2178 8.78217C45.5557 3.12 38.0191 0 30 0ZM31.3043 2.67261C37.6996 2.9713 43.6787 5.44696 48.4057 9.75L44.7196 13.4361C40.9748 10.1126 36.2974 8.17826 31.3043 7.89V2.67261ZM28.6957 2.67261V7.89C23.7026 8.17826 19.0265 10.1113 15.2817 13.4361L11.5943 9.75C16.3213 5.44565 22.3004 2.9713 28.6957 2.67261ZM9.75 11.5943L13.4374 15.2804C10.1126 19.0239 8.17826 23.7 7.89 28.6957H2.67261C2.9713 22.3004 5.44565 16.3213 9.75 11.5943ZM2.67261 31.3043H7.89C8.17826 36.2974 10.1113 40.9735 13.4374 44.7196L9.75 48.4057C5.44565 43.6787 2.9713 37.6996 2.67261 31.3043ZM28.6957 57.3274C22.3004 57.0287 16.3213 54.553 11.593 50.25L15.2804 46.5626C19.0239 49.8874 23.7013 51.8217 28.6957 52.11V57.3274ZM16.17 43.8548C16.1583 43.843 16.1543 43.8261 16.1413 43.8144C16.1348 43.8078 16.1257 43.8065 16.1191 43.8C12.4539 40.1009 10.4348 35.203 10.4348 30C10.4348 24.7761 12.4683 19.86 16.1557 16.1583C19.86 12.4683 24.7761 10.4348 30 10.4348C35.2096 10.4348 40.1126 12.4578 43.8117 16.127C43.8222 16.1387 43.8248 16.153 43.8365 16.1635C43.847 16.1739 43.8613 16.1765 43.8717 16.187C47.5422 19.8887 49.5652 24.7904 49.5652 30C49.5652 35.2096 47.5409 40.1126 43.873 43.8117C43.8613 43.8222 43.847 43.8248 43.8365 43.8365C43.8261 43.847 43.8235 43.8613 43.813 43.8717C40.1113 47.5422 35.2096 49.5652 30 49.5652C24.7813 49.5652 19.8691 47.5357 16.17 43.8548ZM31.3043 57.3274V52.11C36.2974 51.8217 40.9735 49.8887 44.7196 46.5626L48.4057 50.2487C43.6787 54.5543 37.6996 57.0287 31.3043 57.3274ZM50.25 48.4057L46.5639 44.7196C49.8887 40.9748 51.8217 36.2987 52.1113 31.3043H57.3287C57.0287 37.6996 54.5544 43.6787 50.25 48.4057ZM52.11 28.6957C51.8217 23.7026 49.8887 19.0265 46.5626 15.2804L50.2487 11.5943C54.553 16.3213 57.0274 22.3004 57.3261 28.6957H52.11Z" fill="#00568E"/>
<path d="M27.3913 20.8696H22.1739C21.4539 20.8696 20.8696 21.4526 20.8696 22.1739V32.6087V37.8261C20.8696 38.5474 21.4539 39.1304 22.1739 39.1304C22.8939 39.1304 23.4783 38.5474 23.4783 37.8261V33.913H27.3913C30.9874 33.913 33.913 30.9874 33.913 27.3913C33.913 23.7952 30.9874 20.8696 27.3913 20.8696ZM27.3913 31.3043H23.4783V23.4783H27.3913C29.5487 23.4783 31.3043 25.2339 31.3043 27.3913C31.3043 29.5487 29.5487 31.3043 27.3913 31.3043Z" fill="#00568E"/>
<path d="M36.5217 33.913C35.083 33.913 33.913 35.083 33.913 36.5217C33.913 37.9604 35.083 39.1304 36.5217 39.1304C37.9604 39.1304 39.1304 37.9604 39.1304 36.5217C39.1304 35.083 37.9604 33.913 36.5217 33.913ZM35.2174 36.5217L36.5204 36.5178C36.5217 36.5191 36.5217 36.5204 36.5217 36.5217H35.2174Z" fill="#00568E"/>
</svg>
