<svg width="60" height="60" viewBox="0 0 60 60" fill="none" xmlns="http://www.w3.org/2000/svg">
<path d="M37.826 3.91305V9.13044H1.30432V3.91305C1.30432 2.47827 2.47823 1.30435 3.91302 1.30435H35.2174C36.6521 1.30435 37.826 2.47827 37.826 3.91305Z" fill="#CCE4FF"/>
<path d="M22.1739 52.1739C22.8939 52.1739 23.4782 51.5896 23.4782 50.8696C23.4782 50.1496 22.8939 49.5652 22.1739 49.5652H16.9565C16.2365 49.5652 15.6522 50.1496 15.6522 50.8696C15.6522 51.5896 16.2365 52.1739 16.9565 52.1739H22.1739Z" fill="#00568E"/>
<path d="M37.8261 44.3478C37.1048 44.3478 36.5217 44.9322 36.5217 45.6522V56.087C36.5217 56.8057 35.9374 57.3913 35.2174 57.3913H3.91304C3.19435 57.3913 2.60869 56.8057 2.60869 56.087V10.4348H36.5217V16.9565C36.5217 17.6765 37.1048 18.2609 37.8261 18.2609C38.5474 18.2609 39.1304 17.6765 39.1304 16.9565V3.91304C39.1304 1.75565 37.3748 0 35.2174 0H3.91304C1.75565 0 0 1.75565 0 3.91304V56.087C0 58.2444 1.75565 60 3.91304 60H35.2174C37.3748 60 39.1304 58.2444 39.1304 56.087V45.6522C39.1304 44.9322 38.5474 44.3478 37.8261 44.3478ZM3.91304 2.6087H35.2174C35.9374 2.6087 36.5217 3.19435 36.5217 3.91304V7.82609H2.60869V3.91304C2.60869 3.19435 3.19435 2.6087 3.91304 2.6087Z" fill="#00568E"/>
<path d="M58.6957 36.5217H53.4783C52.9448 36.5217 52.4661 36.8465 52.2665 37.3409L48.2609 47.3583L39.0378 24.2987C38.8383 23.803 38.3596 23.4783 37.8261 23.4783C37.2926 23.4783 36.8139 23.803 36.6144 24.2974L31.7257 36.5217H25.5887L20.7313 26.8083C20.2892 25.9239 18.84 25.9239 18.3978 26.8083L13.5418 36.5217H9.13046C8.41046 36.5217 7.82611 37.1061 7.82611 37.8261C7.82611 38.5461 8.41046 39.1304 9.13046 39.1304H14.3478C14.8422 39.1304 15.2935 38.8513 15.5152 38.4091L19.5652 30.3078L23.6152 38.4091C23.837 38.8513 24.2883 39.1304 24.7826 39.1304H32.6087C33.1422 39.1304 33.6209 38.8056 33.8205 38.3113L37.8261 28.2939L47.0492 51.3535C47.2487 51.8491 47.7274 52.1739 48.2609 52.1739C48.7944 52.1739 49.2731 51.8491 49.4726 51.3548L54.3613 39.1304H58.6957C59.417 39.1304 60 38.5461 60 37.8261C60 37.1061 59.417 36.5217 58.6957 36.5217Z" fill="#00568E"/>
<path d="M9.13046 15.6522C8.41046 15.6522 7.82611 16.2365 7.82611 16.9565C7.82611 17.6765 8.41046 18.2609 9.13046 18.2609H30C30.72 18.2609 31.3044 17.6765 31.3044 16.9565C31.3044 16.2365 30.72 15.6522 30 15.6522H9.13046Z" fill="#00568E"/>
</svg>
